Coordinates
version=1
nRows=12
nColumns=24
inDegrees=yes

Units are S.I. units (second, meters, Newtons, ...)
If the header above contains a line with 'inDegrees', this indicates whether rotational values are in degrees (yes) or radians (no).

endheader
time	pelvis_tilt	pelvis_list	pelvis_rotation	pelvis_tx	pelvis_ty	pelvis_tz	hip_flexion_r	hip_adduction_r	hip_rotation_r	knee_angle_r	ankle_angle_r	subtalar_angle_r	mtp_angle_r	hip_flexion_l	hip_adduction_l	hip_rotation_l	knee_angle_l	ankle_angle_l	subtalar_angle_l	mtp_angle_l	lumbar_extension	lumbar_bending	lumbar_rotation
      6.30012600	      2.68461984	    -13.49073324	    -93.57819262	      0.50884022	      0.97244817	      8.39198434	    -20.87835477	      1.19223676	     10.92916361	      6.36118483	      0.17387497	     -3.88933266	      9.60445352	      4.45349043	     -1.04775667	    -10.78345632	    -35.21718104	     49.05250665	    -19.51192555	   -112.08998890	    -18.75338694	     -4.74588791	      7.85344729
      6.31679300	      0.90442792	    -13.58777155	    -94.67975105	      0.51262576	      0.97172330	      8.41188537	    -22.78060922	      2.23199839	     12.37050492	      7.16726849	     -0.35709113	     -4.54806577	     11.27111293	      5.25318327	     -2.62076989	    -10.46311428	    -30.83035994	     45.43522969	    -15.10565363	   -101.37972381	    -18.78988204	     -3.14844269	      6.75530236
      6.33346000	     -0.23790848	    -13.53593182	    -95.70991949	      0.51649028	      0.97050929	      8.43126393	    -24.46961481	      2.67084059	     13.04914449	      7.90862877	     -0.48142776	     -4.61201579	     12.65223034	      6.15287124	     -3.62187192	     -9.66177714	    -27.68499434	     38.26640381	     -6.72525861	    -78.15478656	    -18.78753308	     -2.21844812	      5.78404873
      6.35012700	     -0.12276679	    -13.51396047	    -96.27034023	      0.51929077	      0.96962296	      8.45082113	    -26.06778816	      2.05231186	     12.99769373	      8.56368746	     -0.00291461	     -4.52423962	     13.20808118	      7.20327160	     -3.75050710	     -8.42352003	    -26.46810857	     18.72498578	      4.83322180	    -26.07111180	    -18.92405527	     -2.56995747	      5.42903990
      6.36679400	     -2.90288122	    -13.32989858	    -97.19649722	      0.52385178	      0.96588633	      8.47176017	    -27.70510578	      4.08323480	     14.69215365	      8.83560180	     -0.09282947	     -5.26903150	     14.72351102	      6.50419089	     -6.57049969	     -7.27296319	    -18.69536553	     11.17661224	      5.22568425	    -15.55039401	    -18.90931142	      0.16748727	      4.00438580
      6.38346100	     -5.84474241	    -13.05479708	    -98.03864813	      0.52811000	      0.96124847	      8.49359710	    -29.33862214	      6.26111272	     16.69828740	      8.93886628	      0.04524493	     -6.22188300	     15.85949777	      5.60671933	     -9.64245565	     -6.66563126	    -10.66659894	      4.40767097	      5.43151385	     -7.08184904	    -18.89487949	      3.10181648	      2.75994997
      6.40012800	     -8.51204676	    -12.83542895	    -98.70894632	      0.53154676	      0.95678514	      8.51667923	    -30.98683076	      8.16404131	     18.97535708	      8.75243552	      0.14378121	     -7.54658570	     17.19011469	      4.90532496	    -12.41953676	     -7.25876104	     -4.22875416	     -0.30034553	      6.45666054	     -0.86721894	    -18.93557768	      5.75412770	      1.96390775
      6.41679500	    -10.87432600	    -12.83992702	    -99.50275884	      0.53433433	      0.95286842	      8.54074621	    -32.85362342	      9.64771553	     21.26176940	      8.31676352	      0.46084472	     -8.72266402	     18.31700200	      4.01894103	    -14.76323638	     -9.28725708	      0.65834442	     -3.19019832	      9.12020428	      4.18741343	    -19.20225814	      7.98767987	      1.59965994
      6.43346200	    -12.99780510	    -12.99929820	   -100.34797695	      0.53702455	      0.94934328	      8.56546689	    -34.82325372	     10.82300722	     23.33867049	      7.62239019	      0.96387859	     -9.57527631	     19.29166351	      2.98100951	    -16.64470064	    -12.06018384	      4.36040936	     -4.85823078	     13.04271182	      8.30370784	    -19.64507483	      9.91044535	      1.43820017
      6.45012900	    -14.77773549	    -13.27493159	   -101.02829325	      0.54074124	      0.94672204	      8.59028873	    -36.66261047	     11.72647044	     24.39348145	      6.56560906	      1.63344871	     -9.33632024	     19.99699685	      2.28692920	    -18.06884842	    -13.90560273	      6.19774317	     -5.43383489	     16.05059038	     10.61424840	    -20.19398348	     11.48687959	      0.98118140
      6.46679600	    -16.20591060	    -13.67637041	   -101.42419830	      0.54543403	      0.94503369	      8.61503314	    -38.28719664	     12.39585708	     24.54940692	      5.10092382	      2.52206746	     -8.09645622	     20.47084574	      2.29438766	    -19.27242646	    -13.86537130	      5.46353818	     -4.80996710	     16.59526485	     10.92067508	    -20.83084130	     12.72141994	      0.18833069
      6.48346300	    -17.42351183	    -14.20897282	   -101.49494712	      0.55124679	      0.94407955	      8.64001670	    -39.70169541	     13.02209662	     23.88650786	      3.21138083	      3.57195164	     -6.06239218	     20.63393049	      2.64271027	    -20.35128553	    -12.37855712	      3.03218867	     -3.21399821	     15.53537805	      9.64848394	    -21.51836257	     13.80795535	     -1.00440406
